<svg width="850" height="550" viewBox="0 0 850 550" fill="none" xmlns="http://www.w3.org/2000/svg">
<rect width="850" height="550" fill="url(#paint0_linear_73_2)"/>
<path d="M221.646 211.328C221.646 212.112 221.496 212.848 221.195 213.536C220.905 214.223 220.502 214.825 219.986 215.34C219.471 215.856 218.864 216.264 218.166 216.565C217.478 216.855 216.742 217 215.958 217H208.643V193.894H215.958C216.742 193.894 217.478 194.044 218.166 194.345C218.864 194.635 219.471 195.038 219.986 195.553C220.502 196.069 220.905 196.676 221.195 197.374C221.496 198.062 221.646 198.797 221.646 199.582V211.328ZM219.567 199.582C219.567 199.066 219.471 198.588 219.277 198.147C219.084 197.696 218.815 197.304 218.472 196.971C218.139 196.627 217.747 196.359 217.295 196.166C216.855 195.972 216.377 195.875 215.861 195.875H210.721V215.018H215.861C216.377 215.018 216.855 214.921 217.295 214.728C217.747 214.535 218.139 214.271 218.472 213.938C218.815 213.605 219.084 213.219 219.277 212.778C219.471 212.327 219.567 211.844 219.567 211.328V199.582ZM237.614 212.472C237.614 213.138 237.485 213.767 237.227 214.357C236.98 214.948 236.636 215.464 236.196 215.904C235.755 216.345 235.24 216.694 234.649 216.952C234.058 217.199 233.43 217.322 232.764 217.322H231.442C230.776 217.322 230.148 217.199 229.557 216.952C228.966 216.694 228.451 216.345 228.01 215.904C227.57 215.464 227.221 214.948 226.963 214.357C226.716 213.767 226.592 213.138 226.592 212.472V205.028C226.592 204.362 226.716 203.733 226.963 203.143C227.221 202.552 227.57 202.036 228.01 201.596C228.451 201.155 228.966 200.812 229.557 200.564C230.148 200.307 230.776 200.178 231.442 200.178H232.764C233.43 200.178 234.058 200.307 234.649 200.564C235.24 200.812 235.755 201.155 236.196 201.596C236.636 202.036 236.98 202.552 237.227 203.143C237.485 203.733 237.614 204.362 237.614 205.028V212.472ZM235.632 204.915C235.632 204.518 235.556 204.147 235.406 203.803C235.256 203.449 235.052 203.143 234.794 202.885C234.536 202.627 234.23 202.423 233.875 202.272C233.532 202.122 233.161 202.047 232.764 202.047H231.442C231.045 202.047 230.669 202.122 230.314 202.272C229.971 202.423 229.67 202.627 229.412 202.885C229.154 203.143 228.95 203.449 228.8 203.803C228.649 204.147 228.574 204.518 228.574 204.915V212.585C228.574 212.982 228.649 213.358 228.8 213.713C228.95 214.057 229.154 214.357 229.412 214.615C229.67 214.873 229.971 215.077 230.314 215.228C230.669 215.378 231.045 215.453 231.442 215.453H232.764C233.161 215.453 233.532 215.378 233.875 215.228C234.23 215.077 234.536 214.873 234.794 214.615C235.052 214.357 235.256 214.057 235.406 213.713C235.556 213.358 235.632 212.982 235.632 212.585V204.915ZM248.248 217C247.646 217 247.077 216.887 246.54 216.662C246.013 216.436 245.551 216.125 245.154 215.727C244.767 215.33 244.456 214.868 244.219 214.341C243.994 213.815 243.881 213.251 243.881 212.649V202.385H240.916V200.5H243.881V196.536L245.863 196.214V200.5H250.052V202.385H245.863V212.746C245.863 213.079 245.922 213.391 246.04 213.681C246.169 213.96 246.341 214.207 246.556 214.422C246.771 214.637 247.023 214.809 247.313 214.938C247.603 215.056 247.915 215.115 248.248 215.115H250.052V217H248.248ZM260.38 217C259.779 217 259.209 216.887 258.672 216.662C258.146 216.436 257.684 216.125 257.287 215.727C256.9 215.33 256.588 214.868 256.352 214.341C256.126 213.815 256.014 213.251 256.014 212.649V202.385H253.049V200.5H256.014V196.536L257.996 196.214V200.5H262.185V202.385H257.996V212.746C257.996 213.079 258.055 213.391 258.173 213.681C258.302 213.96 258.474 214.207 258.688 214.422C258.903 214.637 259.156 214.809 259.446 214.938C259.736 215.056 260.047 215.115 260.38 215.115H262.185V217H260.38ZM266.825 217V214.519H269.307V217H266.825ZM285.596 212.811C285.596 213.477 285.462 214.089 285.194 214.647C284.925 215.195 284.56 215.668 284.098 216.065C283.636 216.463 283.099 216.774 282.487 217C281.885 217.215 281.251 217.322 280.585 217.322H279.264C278.598 217.322 277.959 217.199 277.346 216.952C276.745 216.694 276.213 216.345 275.751 215.904C275.3 215.464 274.935 214.948 274.655 214.357C274.387 213.767 274.253 213.138 274.253 212.472V211.812L276.235 211.489V212.585C276.235 212.982 276.315 213.358 276.476 213.713C276.648 214.057 276.874 214.357 277.153 214.615C277.432 214.873 277.755 215.077 278.12 215.228C278.485 215.378 278.866 215.453 279.264 215.453H280.585C280.983 215.453 281.364 215.394 281.729 215.276C282.094 215.158 282.417 214.991 282.696 214.776C282.986 214.551 283.212 214.282 283.373 213.971C283.545 213.659 283.631 213.305 283.631 212.907C283.631 212.316 283.502 211.833 283.244 211.457C282.986 211.081 282.642 210.77 282.213 210.522C281.794 210.265 281.31 210.055 280.762 209.894C280.225 209.722 279.672 209.556 279.103 209.395C278.533 209.223 277.975 209.029 277.427 208.814C276.89 208.6 276.406 208.32 275.977 207.977C275.558 207.622 275.219 207.182 274.962 206.655C274.704 206.129 274.575 205.474 274.575 204.689C274.575 204.023 274.704 203.417 274.962 202.869C275.219 202.31 275.569 201.832 276.009 201.435C276.449 201.037 276.96 200.731 277.54 200.516C278.131 200.291 278.759 200.178 279.425 200.178H280.585C281.251 200.178 281.88 200.307 282.47 200.564C283.061 200.812 283.577 201.155 284.017 201.596C284.458 202.036 284.801 202.552 285.049 203.143C285.306 203.733 285.435 204.362 285.435 205.028V205.092L283.453 205.415V204.915C283.453 204.518 283.378 204.147 283.228 203.803C283.077 203.449 282.873 203.143 282.615 202.885C282.358 202.627 282.051 202.423 281.697 202.272C281.353 202.122 280.983 202.047 280.585 202.047H279.425C279.028 202.047 278.652 202.106 278.297 202.224C277.953 202.342 277.653 202.514 277.395 202.74C277.137 202.955 276.933 203.218 276.782 203.529C276.632 203.841 276.557 204.195 276.557 204.593C276.557 205.162 276.686 205.629 276.944 205.995C277.201 206.349 277.54 206.65 277.959 206.897C278.388 207.144 278.872 207.354 279.409 207.525C279.957 207.687 280.51 207.858 281.069 208.041C281.638 208.213 282.191 208.412 282.728 208.637C283.276 208.863 283.759 209.153 284.178 209.507C284.608 209.862 284.952 210.308 285.21 210.845C285.467 211.371 285.596 212.026 285.596 212.811ZM301.403 212.811C301.403 213.477 301.269 214.089 301 214.647C300.731 215.195 300.366 215.668 299.904 216.065C299.442 216.463 298.905 216.774 298.293 217C297.691 217.215 297.058 217.322 296.392 217.322H295.07C294.404 217.322 293.765 217.199 293.153 216.952C292.551 216.694 292.02 216.345 291.558 215.904C291.106 215.464 290.741 214.948 290.462 214.357C290.193 213.767 290.059 213.138 290.059 212.472V211.812L292.041 211.489V212.585C292.041 212.982 292.122 213.358 292.283 213.713C292.455 214.057 292.68 214.357 292.96 214.615C293.239 214.873 293.561 215.077 293.926 215.228C294.292 215.378 294.673 215.453 295.07 215.453H296.392C296.789 215.453 297.17 215.394 297.536 215.276C297.901 215.158 298.223 214.991 298.502 214.776C298.793 214.551 299.018 214.282 299.179 213.971C299.351 213.659 299.437 213.305 299.437 212.907C299.437 212.316 299.308 211.833 299.05 211.457C298.793 211.081 298.449 210.77 298.019 210.522C297.6 210.265 297.117 210.055 296.569 209.894C296.032 209.722 295.479 209.556 294.909 209.395C294.34 209.223 293.781 209.029 293.233 208.814C292.696 208.6 292.213 208.32 291.783 207.977C291.364 207.622 291.026 207.182 290.768 206.655C290.51 206.129 290.381 205.474 290.381 204.689C290.381 204.023 290.51 203.417 290.768 202.869C291.026 202.31 291.375 201.832 291.815 201.435C292.256 201.037 292.766 200.731 293.346 200.516C293.937 200.291 294.565 200.178 295.231 200.178H296.392C297.058 200.178 297.686 200.307 298.277 200.564C298.868 200.812 299.383 201.155 299.824 201.596C300.264 202.036 300.608 202.552 300.855 203.143C301.113 203.733 301.242 204.362 301.242 205.028V205.092L299.26 205.415V204.915C299.26 204.518 299.185 204.147 299.034 203.803C298.884 203.449 298.68 203.143 298.422 202.885C298.164 202.627 297.858 202.423 297.503 202.272C297.16 202.122 296.789 202.047 296.392 202.047H295.231C294.834 202.047 294.458 202.106 294.104 202.224C293.76 202.342 293.459 202.514 293.201 202.74C292.943 202.955 292.739 203.218 292.589 203.529C292.439 203.841 292.363 204.195 292.363 204.593C292.363 205.162 292.492 205.629 292.75 205.995C293.008 206.349 293.346 206.65 293.765 206.897C294.195 207.144 294.678 207.354 295.215 207.525C295.763 207.687 296.316 207.858 296.875 208.041C297.444 208.213 297.998 208.412 298.535 208.637C299.083 208.863 299.566 209.153 299.985 209.507C300.415 209.862 300.758 210.308 301.016 210.845C301.274 211.371 301.403 212.026 301.403 212.811ZM316.226 217L315.131 215.356C314.68 215.947 314.116 216.425 313.439 216.791C312.762 217.145 312.021 217.322 311.215 217.322H310.716C310.05 217.322 309.421 217.199 308.83 216.952C308.24 216.694 307.724 216.345 307.284 215.904C306.843 215.464 306.494 214.948 306.236 214.357C305.989 213.767 305.866 213.138 305.866 212.472V212.311C305.866 211.645 305.989 211.017 306.236 210.426C306.494 209.835 306.843 209.319 307.284 208.879C307.724 208.438 308.24 208.095 308.83 207.848C309.421 207.59 310.05 207.461 310.716 207.461H314.905V204.915C314.905 204.518 314.83 204.147 314.68 203.803C314.529 203.449 314.325 203.143 314.067 202.885C313.809 202.627 313.503 202.423 313.149 202.272C312.805 202.122 312.434 202.047 312.037 202.047H310.877C310.479 202.047 310.103 202.122 309.749 202.272C309.405 202.423 309.104 202.627 308.847 202.885C308.589 203.143 308.385 203.449 308.234 203.803C308.084 204.147 308.009 204.518 308.009 204.915V205.511L306.027 205.189V205.028C306.027 204.362 306.15 203.733 306.397 203.143C306.655 202.552 307.004 202.036 307.445 201.596C307.885 201.155 308.401 200.812 308.992 200.564C309.582 200.307 310.211 200.178 310.877 200.178H312.037C312.703 200.178 313.331 200.307 313.922 200.564C314.513 200.812 315.029 201.155 315.469 201.596C315.91 202.036 316.253 202.552 316.5 203.143C316.758 203.733 316.887 204.362 316.887 205.028V217H316.226ZM314.905 209.008H310.716C310.318 209.008 309.942 209.083 309.588 209.233C309.244 209.384 308.943 209.593 308.685 209.862C308.428 210.12 308.224 210.426 308.073 210.78C307.923 211.124 307.848 211.495 307.848 211.892V212.585C307.848 212.982 307.923 213.358 308.073 213.713C308.224 214.057 308.428 214.357 308.685 214.615C308.943 214.873 309.244 215.077 309.588 215.228C309.942 215.378 310.318 215.453 310.716 215.453H312.037C312.434 215.453 312.805 215.378 313.149 215.228C313.503 215.077 313.809 214.873 314.067 214.615C314.325 214.357 314.529 214.057 314.68 213.713C314.83 213.358 314.905 212.982 314.905 212.585V209.008Z" fill="black"/>
<path d="M406.646 359.328C406.646 360.112 406.496 360.848 406.195 361.536C405.905 362.223 405.502 362.825 404.986 363.34C404.471 363.856 403.864 364.264 403.166 364.565C402.478 364.855 401.742 365 400.958 365H393.643V341.894H400.958C401.742 341.894 402.478 342.044 403.166 342.345C403.864 342.635 404.471 343.038 404.986 343.553C405.502 344.069 405.905 344.676 406.195 345.374C406.496 346.062 406.646 346.797 406.646 347.582V347.807C406.646 348.355 406.571 348.881 406.42 349.386C406.281 349.88 406.077 350.342 405.808 350.772C405.54 351.202 405.223 351.594 404.857 351.948C404.492 352.292 404.084 352.582 403.633 352.818C404.084 353.055 404.492 353.35 404.857 353.705C405.223 354.048 405.54 354.44 405.808 354.881C406.077 355.311 406.281 355.778 406.42 356.283C406.571 356.777 406.646 357.298 406.646 357.846V359.328ZM404.567 357.507C404.567 356.992 404.471 356.514 404.277 356.073C404.084 355.622 403.815 355.23 403.472 354.897C403.139 354.564 402.747 354.301 402.295 354.107C401.855 353.914 401.377 353.817 400.861 353.817H395.721V363.018H400.861C401.377 363.018 401.855 362.921 402.295 362.728C402.747 362.535 403.139 362.271 403.472 361.938C403.815 361.605 404.084 361.219 404.277 360.778C404.471 360.327 404.567 359.844 404.567 359.328V357.507ZM404.567 347.582C404.567 347.066 404.471 346.588 404.277 346.147C404.084 345.696 403.815 345.304 403.472 344.971C403.139 344.627 402.747 344.359 402.295 344.166C401.855 343.972 401.377 343.875 400.861 343.875H395.721V351.835H400.861C401.377 351.835 401.855 351.739 402.295 351.545C402.747 351.352 403.139 351.089 403.472 350.756C403.815 350.412 404.084 350.02 404.277 349.58C404.471 349.128 404.567 348.645 404.567 348.129V347.582ZM413.266 365V341.894H415.345V365H413.266ZM435.951 359.65C435.951 360.435 435.801 361.17 435.5 361.858C435.21 362.545 434.807 363.147 434.291 363.663C433.776 364.178 433.174 364.586 432.487 364.887C431.799 365.177 431.063 365.322 430.279 365.322H428.635C427.851 365.322 427.11 365.177 426.412 364.887C425.724 364.586 425.123 364.178 424.607 363.663C424.092 363.147 423.683 362.545 423.383 361.858C423.093 361.17 422.947 360.435 422.947 359.65V347.243C422.947 346.459 423.093 345.723 423.383 345.036C423.683 344.348 424.092 343.747 424.607 343.231C425.123 342.715 425.724 342.312 426.412 342.022C427.11 341.722 427.851 341.571 428.635 341.571H430.279C431.063 341.571 431.799 341.722 432.487 342.022C433.174 342.312 433.776 342.715 434.291 343.231C434.807 343.747 435.21 344.348 435.5 345.036C435.801 345.723 435.951 346.459 435.951 347.243V359.65ZM433.872 347.243C433.872 346.728 433.776 346.25 433.582 345.809C433.389 345.358 433.126 344.966 432.793 344.633C432.46 344.3 432.068 344.037 431.616 343.843C431.176 343.65 430.698 343.553 430.182 343.553H428.732C428.217 343.553 427.733 343.65 427.282 343.843C426.842 344.037 426.449 344.3 426.106 344.633C425.773 344.966 425.509 345.358 425.316 345.809C425.123 346.25 425.026 346.728 425.026 347.243V359.65C425.026 360.166 425.123 360.649 425.316 361.101C425.509 361.541 425.773 361.933 426.106 362.277C426.449 362.61 426.842 362.873 427.282 363.066C427.733 363.26 428.217 363.356 428.732 363.356H430.182C430.698 363.356 431.176 363.26 431.616 363.066C432.068 362.873 432.46 362.61 432.793 362.277C433.126 361.933 433.389 361.541 433.582 361.101C433.776 360.649 433.872 360.166 433.872 359.65V347.243ZM443.215 365V341.894H445.294V363.018H454.14V365H443.215ZM472.748 359.65C472.748 360.435 472.598 361.17 472.297 361.858C472.007 362.545 471.604 363.147 471.089 363.663C470.573 364.178 469.972 364.586 469.284 364.887C468.597 365.177 467.861 365.322 467.077 365.322H465.433C464.649 365.322 463.908 365.177 463.209 364.887C462.522 364.586 461.92 364.178 461.405 363.663C460.889 363.147 460.481 362.545 460.18 361.858C459.89 361.17 459.745 360.435 459.745 359.65V347.243C459.745 346.459 459.89 345.723 460.18 345.036C460.481 344.348 460.889 343.747 461.405 343.231C461.92 342.715 462.522 342.312 463.209 342.022C463.908 341.722 464.649 341.571 465.433 341.571H467.077C467.861 341.571 468.597 341.722 469.284 342.022C469.972 342.312 470.573 342.715 471.089 343.231C471.604 343.747 472.007 344.348 472.297 345.036C472.598 345.723 472.748 346.459 472.748 347.243V359.65ZM470.67 347.243C470.67 346.728 470.573 346.25 470.38 345.809C470.186 345.358 469.923 344.966 469.59 344.633C469.257 344.3 468.865 344.037 468.414 343.843C467.974 343.65 467.496 343.553 466.98 343.553H465.53C465.014 343.553 464.531 343.65 464.08 343.843C463.639 344.037 463.247 344.3 462.903 344.633C462.57 344.966 462.307 345.358 462.114 345.809C461.92 346.25 461.824 346.728 461.824 347.243V359.65C461.824 360.166 461.92 360.649 462.114 361.101C462.307 361.541 462.57 361.933 462.903 362.277C463.247 362.61 463.639 362.873 464.08 363.066C464.531 363.26 465.014 363.356 465.53 363.356H466.98C467.496 363.356 467.974 363.26 468.414 363.066C468.865 362.873 469.257 362.61 469.59 362.277C469.923 361.933 470.186 361.541 470.38 361.101C470.573 360.649 470.67 360.166 470.67 359.65V347.243ZM493.016 365H492.356L491.147 363.147C490.642 363.813 490.03 364.345 489.31 364.742C488.591 365.129 487.79 365.322 486.909 365.322H485.701C484.917 365.322 484.176 365.177 483.477 364.887C482.79 364.586 482.188 364.178 481.673 363.663C481.157 363.147 480.749 362.545 480.448 361.858C480.158 361.17 480.013 360.435 480.013 359.65V347.243C480.013 346.459 480.158 345.723 480.448 345.036C480.749 344.348 481.157 343.747 481.673 343.231C482.188 342.715 482.79 342.312 483.477 342.022C484.176 341.722 484.917 341.571 485.701 341.571H487.345C488.129 341.571 488.865 341.722 489.552 342.022C490.24 342.312 490.841 342.715 491.357 343.231C491.872 343.747 492.275 344.348 492.565 345.036C492.866 345.723 493.016 346.459 493.016 347.243V348.178L490.938 348.5V347.243C490.938 346.728 490.841 346.25 490.648 345.809C490.454 345.358 490.191 344.966 489.858 344.633C489.525 344.3 489.133 344.037 488.682 343.843C488.242 343.65 487.763 343.553 487.248 343.553H485.798C485.282 343.553 484.799 343.65 484.347 343.843C483.907 344.037 483.515 344.3 483.171 344.633C482.838 344.966 482.575 345.358 482.382 345.809C482.188 346.25 482.092 346.728 482.092 347.243V359.65C482.092 360.166 482.188 360.649 482.382 361.101C482.575 361.541 482.838 361.933 483.171 362.277C483.515 362.61 483.907 362.873 484.347 363.066C484.799 363.26 485.282 363.356 485.798 363.356H487.248C487.763 363.356 488.242 363.26 488.682 363.066C489.133 362.873 489.525 362.61 489.858 362.277C490.191 361.933 490.454 361.541 490.648 361.101C490.841 360.649 490.938 360.166 490.938 359.65V354.833H487.248V352.851H493.016V365ZM509.288 359.618H501.973L500.458 365H498.299L505.067 341.894H506.162L512.962 365H510.819L509.288 359.618ZM502.537 357.636H508.74L505.695 346.985L505.631 346.131L505.566 346.985L502.537 357.636ZM550.966 365L541.33 348.178L541.136 347.179V365H539.058V341.894H540.137L549.773 358.732L549.983 359.715V341.894H552.061V365H550.966ZM572.668 359.65C572.668 360.435 572.517 361.17 572.216 361.858C571.926 362.545 571.524 363.147 571.008 363.663C570.492 364.178 569.891 364.586 569.203 364.887C568.516 365.177 567.78 365.322 566.996 365.322H565.352C564.568 365.322 563.827 365.177 563.129 364.887C562.441 364.586 561.839 364.178 561.324 363.663C560.808 363.147 560.4 362.545 560.099 361.858C559.809 361.17 559.664 360.435 559.664 359.65V341.894H561.743V359.65C561.743 360.166 561.839 360.649 562.033 361.101C562.226 361.541 562.489 361.933 562.822 362.277C563.166 362.61 563.558 362.873 563.999 363.066C564.45 363.26 564.933 363.356 565.449 363.356H566.899C567.415 363.356 567.893 363.26 568.333 363.066C568.784 362.873 569.176 362.61 569.509 362.277C569.842 361.933 570.106 361.541 570.299 361.101C570.492 360.649 570.589 360.166 570.589 359.65V341.894H572.668V359.65ZM585.878 343.875V365H583.799V343.875H578.289V341.894H591.389V343.875H585.878ZM608.208 365L601.94 355.139H599.088V365H597.01V341.894H604.341C605.125 341.894 605.861 342.044 606.549 342.345C607.236 342.635 607.838 343.038 608.353 343.553C608.869 344.069 609.272 344.676 609.562 345.374C609.863 346.062 610.013 346.797 610.013 347.582V349.451C610.013 350.235 609.863 350.976 609.562 351.674C609.272 352.362 608.869 352.963 608.353 353.479C607.838 353.995 607.236 354.403 606.549 354.704C605.861 354.994 605.125 355.139 604.341 355.139L610.609 365H608.208ZM607.934 347.582C607.934 347.066 607.838 346.588 607.644 346.147C607.451 345.696 607.188 345.304 606.855 344.971C606.522 344.627 606.13 344.359 605.679 344.166C605.238 343.972 604.76 343.875 604.244 343.875H599.088V353.157H604.244C604.76 353.157 605.238 353.06 605.679 352.867C606.13 352.673 606.522 352.41 606.855 352.077C607.188 351.733 607.451 351.341 607.644 350.901C607.838 350.45 607.934 349.966 607.934 349.451V347.582ZM617.229 365V341.894H619.308V365H617.229ZM625.928 365V364.017L636.224 343.875H626.25V341.894H638.931V342.893L628.635 363.018H638.931V365H625.928ZM645.551 365V341.894H647.63V365H645.551ZM668.236 359.65C668.236 360.435 668.086 361.17 667.785 361.858C667.495 362.545 667.092 363.147 666.576 363.663C666.061 364.178 665.459 364.586 664.772 364.887C664.084 365.177 663.348 365.322 662.564 365.322H660.921C660.136 365.322 659.395 365.177 658.697 364.887C658.01 364.586 657.408 364.178 656.892 363.663C656.377 363.147 655.969 362.545 655.668 361.858C655.378 361.17 655.233 360.435 655.233 359.65V347.243C655.233 346.459 655.378 345.723 655.668 345.036C655.969 344.348 656.377 343.747 656.892 343.231C657.408 342.715 658.01 342.312 658.697 342.022C659.395 341.722 660.136 341.571 660.921 341.571H662.564C663.348 341.571 664.084 341.722 664.772 342.022C665.459 342.312 666.061 342.715 666.576 343.231C667.092 343.747 667.495 344.348 667.785 345.036C668.086 345.723 668.236 346.459 668.236 347.243V359.65ZM666.157 347.243C666.157 346.728 666.061 346.25 665.867 345.809C665.674 345.358 665.411 344.966 665.078 344.633C664.745 344.3 664.353 344.037 663.902 343.843C663.461 343.65 662.983 343.553 662.468 343.553H661.017C660.502 343.553 660.018 343.65 659.567 343.843C659.127 344.037 658.735 344.3 658.391 344.633C658.058 344.966 657.795 345.358 657.601 345.809C657.408 346.25 657.311 346.728 657.311 347.243V359.65C657.311 360.166 657.408 360.649 657.601 361.101C657.795 361.541 658.058 361.933 658.391 362.277C658.735 362.61 659.127 362.873 659.567 363.066C660.018 363.26 660.502 363.356 661.017 363.356H662.468C662.983 363.356 663.461 363.26 663.902 363.066C664.353 362.873 664.745 362.61 665.078 362.277C665.411 361.933 665.674 361.541 665.867 361.101C666.061 360.649 666.157 360.166 666.157 359.65V347.243ZM687.747 365L678.111 348.178L677.918 347.179V365H675.839V341.894H676.919L686.554 358.732L686.764 359.715V341.894H688.842V365H687.747ZM696.784 365V341.894H698.862V365H696.784ZM719.469 359.65C719.469 360.435 719.307 361.17 718.985 361.858C718.674 362.545 718.249 363.147 717.712 363.663C717.186 364.178 716.568 364.586 715.859 364.887C715.161 365.177 714.42 365.322 713.636 365.322H711.976C711.192 365.322 710.445 365.177 709.736 364.887C709.038 364.586 708.42 364.178 707.883 363.663C707.357 363.147 706.932 362.545 706.61 361.858C706.299 361.17 706.143 360.435 706.143 359.65V358.732L708.222 358.394V359.65C708.222 360.166 708.324 360.649 708.528 361.101C708.743 361.541 709.027 361.933 709.382 362.277C709.736 362.61 710.144 362.873 710.606 363.066C711.079 363.26 711.573 363.356 712.089 363.356H713.539C714.055 363.356 714.543 363.26 715.005 363.066C715.467 362.873 715.875 362.61 716.23 362.277C716.584 361.933 716.864 361.541 717.068 361.101C717.283 360.649 717.39 360.166 717.39 359.65V358.958C717.39 358.163 717.234 357.502 716.923 356.976C716.611 356.449 716.198 356.003 715.682 355.638C715.166 355.262 714.581 354.945 713.926 354.688C713.281 354.43 712.615 354.172 711.928 353.914C711.24 353.656 710.569 353.372 709.913 353.06C709.269 352.749 708.689 352.362 708.173 351.9C707.658 351.427 707.244 350.853 706.932 350.176C706.621 349.499 706.465 348.667 706.465 347.678V347.243C706.465 346.459 706.61 345.723 706.9 345.036C707.201 344.348 707.609 343.747 708.125 343.231C708.64 342.715 709.242 342.312 709.93 342.022C710.628 341.722 711.369 341.571 712.153 341.571H713.636C714.42 341.571 715.156 341.722 715.843 342.022C716.531 342.312 717.132 342.715 717.648 343.231C718.163 343.747 718.566 344.348 718.856 345.036C719.157 345.723 719.307 346.459 719.307 347.243V347.839L717.229 348.178V347.243C717.229 346.728 717.132 346.25 716.939 345.809C716.745 345.358 716.482 344.966 716.149 344.633C715.816 344.3 715.424 344.037 714.973 343.843C714.533 343.65 714.055 343.553 713.539 343.553H712.25C711.734 343.553 711.251 343.65 710.8 343.843C710.359 344.037 709.967 344.3 709.623 344.633C709.29 344.966 709.027 345.358 708.834 345.809C708.64 346.25 708.544 346.728 708.544 347.243V347.678C708.544 348.419 708.7 349.042 709.011 349.547C709.323 350.052 709.736 350.487 710.252 350.853C710.767 351.207 711.348 351.519 711.992 351.787C712.647 352.045 713.319 352.313 714.006 352.593C714.694 352.861 715.36 353.162 716.004 353.495C716.66 353.817 717.245 354.22 717.761 354.704C718.276 355.176 718.69 355.756 719.001 356.444C719.313 357.131 719.469 357.969 719.469 358.958V359.65ZM732.195 343.875V365H730.117V343.875H724.606V341.894H737.706V343.875H732.195ZM751.336 359.618H744.02L742.505 365H740.346L747.114 341.894H748.21L755.009 365H752.866L751.336 359.618ZM744.584 357.636H750.788L747.742 346.985L747.678 346.131L747.613 346.985L744.584 357.636Z" fill="black"/>
<path d="M137.3 319.2C130.767 319.2 124.767 318.233 119.3 316.3C113.9 314.367 109.533 311.533 106.2 307.8C102.867 304 101.033 299.333 100.7 293.8C100.567 291.533 100.933 289.033 101.8 286.3C102.667 283.567 103.867 280.867 105.4 278.2C107 275.467 108.867 273.033 111 270.9C113.2 268.7 115.533 267.033 118 265.9C118.2 265.767 118.5 265.667 118.9 265.6C119.367 265.533 119.7 265.5 119.9 265.5C120.3 265.5 120.5 265.6 120.5 265.8C120.5 266.133 120 266.667 119 267.4C116.2 269.6 113.9 272.133 112.1 275C110.233 277.867 108.833 280.933 107.9 284.2C106.967 287.467 106.5 290.767 106.5 294.1C106.5 298.033 107.333 301.433 109 304.3C110.733 307.1 113.033 309.4 115.9 311.2C118.767 313.067 122.033 314.433 125.7 315.3C129.367 316.167 133.2 316.6 137.2 316.6C141.667 316.6 146.067 316.1 150.4 315.1C154.8 314.1 158.8 312.667 162.4 310.8C167.933 307.867 172.3 304.233 175.5 299.9C178.767 295.567 180.4 291.267 180.4 287C180.4 284.733 179.9 282.567 178.9 280.5C177.967 278.433 176.433 276.567 174.3 274.9C172.7 273.633 170.733 272.433 168.4 271.3C166.133 270.167 163.7 269.067 161.1 268C158.567 266.933 156.067 265.867 153.6 264.8C151.133 263.667 148.967 262.467 147.1 261.2C144.433 259.4 142.467 257.467 141.2 255.4C140 253.333 139.4 251.267 139.4 249.2C139.4 246.733 140.1 244.333 141.5 242C142.967 239.667 144.933 237.567 147.4 235.7C149.933 233.767 152.767 232.267 155.9 231.2C158.633 230.267 161.6 229.533 164.8 229C168.067 228.467 171.267 228.2 174.4 228.2C177 228.2 179.467 228.4 181.8 228.8C184.2 229.133 186.3 229.767 188.1 230.7C190.367 231.767 192.1 233.2 193.3 235C194.5 236.733 195.1 238.567 195.1 240.5C195.1 243.167 193.9 245.5 191.5 247.5C190.633 248.167 189.667 248.8 188.6 249.4C187.533 249.933 186.267 250.4 184.8 250.8C184.533 250.867 184.233 250.9 183.9 250.9C183.1 250.9 182.7 250.667 182.7 250.2C182.7 249.933 182.9 249.667 183.3 249.4C183.767 249.067 184.433 248.867 185.3 248.8C187.3 248.533 188.8 247.767 189.8 246.5C190.867 245.233 191.4 243.767 191.4 242.1C191.4 240.367 190.8 238.667 189.6 237C188.467 235.267 186.7 233.833 184.3 232.7C181.9 231.5 178.833 230.9 175.1 230.9C172.967 230.9 170.6 231.133 168 231.6C165.467 232.067 162.7 232.833 159.7 233.9C156.033 235.167 152.967 237.033 150.5 239.5C148.1 241.967 146.9 244.6 146.9 247.4C146.9 249.133 147.467 250.9 148.6 252.7C149.8 254.433 151.7 256.1 154.3 257.7C156.5 259.033 159 260.367 161.8 261.7C164.6 262.967 167.433 264.267 170.3 265.6C173.167 266.867 175.767 268.233 178.1 269.7C181.767 271.967 184.4 274.4 186 277C187.6 279.6 188.4 282.267 188.4 285C188.4 288.2 187.433 291.433 185.5 294.7C183.633 297.9 181.167 300.933 178.1 303.8C175.033 306.6 171.667 309.1 168 311.3C163.733 313.833 158.9 315.767 153.5 317.1C148.167 318.5 142.767 319.2 137.3 319.2ZM219.178 310.3C217.645 310.3 216.278 309.867 215.078 309C213.945 308.133 213.378 306.367 213.378 303.7C213.378 302.567 213.445 301.5 213.578 300.5C213.778 299.5 214.011 298.433 214.278 297.3C213.678 298.3 212.845 299.533 211.778 301C210.711 302.467 209.511 303.9 208.178 305.3C206.911 306.7 205.578 307.867 204.178 308.8C202.845 309.733 201.578 310.2 200.378 310.2C198.645 310.2 197.245 309.433 196.178 307.9C195.111 306.3 194.578 304.233 194.578 301.7C194.578 298.967 195.211 296.033 196.478 292.9C197.745 289.767 199.478 286.767 201.678 283.9C203.878 281.033 206.411 278.7 209.278 276.9C212.145 275.1 215.145 274.2 218.278 274.2C219.811 274.2 221.278 274.467 222.678 275C224.078 275.467 225.311 276.267 226.378 277.4C226.845 277.867 227.078 278.4 227.078 279C227.078 279.4 226.911 279.733 226.578 280C226.245 280.267 225.811 280.333 225.278 280.2C224.545 277.867 222.978 276.7 220.578 276.7C219.445 276.7 218.145 277.067 216.678 277.8C214.878 278.733 212.945 280.233 210.878 282.3C208.878 284.3 206.978 286.6 205.178 289.2C203.445 291.733 202.011 294.3 200.878 296.9C199.745 299.5 199.178 301.867 199.178 304C199.178 306.2 200.011 307.3 201.678 307.3C203.145 307.3 204.645 306.6 206.178 305.2C207.778 303.8 209.278 302.067 210.678 300C212.145 297.867 213.478 295.767 214.678 293.7C215.878 291.633 216.811 289.967 217.478 288.7C218.478 286.9 219.411 285.4 220.278 284.2C221.145 283 222.378 282.4 223.978 282.4C224.711 282.4 225.445 282.5 226.178 282.7C226.911 282.9 227.678 282.933 228.478 282.8C226.478 284.8 224.711 287.167 223.178 289.9C221.711 292.633 220.578 295.333 219.778 298C218.978 300.6 218.578 302.8 218.578 304.6C218.578 306.6 219.245 307.6 220.578 307.6C221.645 307.6 222.778 307 223.978 305.8C225.245 304.6 226.445 303.1 227.578 301.3C228.778 299.433 229.878 297.567 230.878 295.7C231.878 293.767 232.678 292.1 233.278 290.7C233.611 290.7 233.878 290.733 234.078 290.8C234.345 290.867 234.478 291.133 234.478 291.6C234.411 291.867 234.278 292.167 234.078 292.5C233.945 292.767 233.711 293.267 233.378 294C232.845 295.067 232.111 296.5 231.178 298.3C230.245 300.1 229.145 301.933 227.878 303.8C226.611 305.6 225.245 307.133 223.778 308.4C222.311 309.667 220.778 310.3 219.178 310.3ZM226.718 310.8C229.118 305.933 231.418 301.133 233.618 296.4C235.818 291.6 238.085 287.033 240.418 282.7C241.751 280.3 242.885 278.633 243.818 277.7C244.751 276.7 245.985 276.2 247.518 276.2C248.051 276.2 248.618 276.3 249.218 276.5C249.818 276.633 250.418 276.7 251.018 276.7C251.418 276.7 251.718 276.667 251.918 276.6C250.985 277.133 249.751 278.467 248.218 280.6C246.751 282.667 245.251 285.067 243.718 287.8C242.185 290.533 240.818 293.1 239.618 295.5C240.885 293.967 242.218 292.433 243.618 290.9C245.018 289.367 246.551 287.9 248.218 286.5C249.818 285.1 251.718 283.667 253.918 282.2C256.185 280.667 258.385 279.4 260.518 278.4C262.651 277.4 264.351 276.9 265.618 276.9C266.085 276.9 266.418 276.933 266.618 277C266.618 277 266.251 277.667 265.518 279C264.785 280.267 263.851 281.967 262.718 284.1C261.651 286.167 260.551 288.4 259.418 290.8C258.285 293.133 257.251 295.4 256.318 297.6C255.451 299.733 254.885 301.533 254.618 303C254.418 303.867 254.318 304.667 254.318 305.4C254.318 306.467 254.518 307.167 254.918 307.5C255.318 307.833 255.751 308 256.218 308C257.485 308 258.785 307.433 260.118 306.3C261.451 305.167 262.718 303.733 263.918 302C265.185 300.2 266.351 298.3 267.418 296.3C268.485 294.3 269.385 292.433 270.118 290.7C270.918 290.7 271.318 291 271.318 291.6C270.585 293.4 269.651 295.4 268.518 297.6C267.451 299.733 266.218 301.767 264.818 303.7C263.485 305.633 261.985 307.233 260.318 308.5C258.651 309.767 256.851 310.4 254.918 310.4C253.585 310.4 252.185 309.933 250.718 309C249.318 308.067 248.618 306.333 248.618 303.8C248.618 303.067 248.685 302.3 248.818 301.5C248.951 300.633 249.185 299.7 249.518 298.7C250.051 297.367 250.685 295.933 251.418 294.4C252.151 292.867 253.351 290.767 255.018 288.1C255.485 287.367 255.751 286.8 255.818 286.4C255.951 286 256.018 285.667 256.018 285.4C256.018 284.6 255.651 284.2 254.918 284.2C254.318 284.2 253.418 284.533 252.218 285.2C251.085 285.867 249.651 287.033 247.918 288.7C246.251 290.3 244.251 292.567 241.918 295.5C239.651 298.433 237.018 302.767 234.018 308.5C233.551 309.367 233.018 309.833 232.418 309.9C231.885 309.967 231.118 310.033 230.118 310.1C229.451 310.167 228.818 310.2 228.218 310.2C227.618 310.267 227.118 310.467 226.718 310.8ZM273.107 290.7C273.574 289.633 274.074 288.533 274.607 287.4C275.14 286.2 275.907 284.7 276.907 282.9C278.107 280.767 279.374 279.2 280.707 278.2C282.04 277.133 283.34 276.433 284.607 276.1C285.874 275.767 286.907 275.6 287.707 275.6C289.374 275.6 290.84 275.833 292.107 276.3C293.374 276.767 294.507 277.267 295.507 277.8C296.574 278.267 297.607 278.5 298.607 278.5C299.874 278.5 300.807 278.167 301.407 277.5C302.007 276.833 302.54 276.5 303.007 276.5C303.474 276.5 303.874 276.7 304.207 277.1C304.54 277.5 304.707 278 304.707 278.6C304.707 279.467 304.34 280.1 303.607 280.5C302.874 280.9 301.64 281.567 299.907 282.5C298.04 283.5 296.374 284.933 294.907 286.8C293.44 288.667 292.007 290.667 290.607 292.8C289.274 294.933 287.807 297.033 286.207 299.1C284.607 301.1 282.74 302.8 280.607 304.2C283.14 304.6 285.474 305.033 287.607 305.5C289.74 305.967 291.607 306.2 293.207 306.2C293.607 306.2 293.94 306.2 294.207 306.2C294.54 306.133 294.874 306.067 295.207 306C297.207 305.467 298.94 304.4 300.407 302.8C301.94 301.133 303.274 299.233 304.407 297.1C305.54 294.967 306.54 292.833 307.407 290.7C308.207 290.7 308.607 291 308.607 291.6C307.407 294.6 305.974 297.567 304.307 300.5C302.64 303.433 300.774 305.867 298.707 307.8C296.64 309.733 294.374 310.7 291.907 310.7C288.974 310.7 286.374 310.433 284.107 309.9C281.84 309.367 279.94 309.1 278.407 309.1C277.14 309.1 275.907 309.433 274.707 310.1C273.574 310.833 272.34 311.2 271.007 311.2C269.807 311.2 269.207 310.7 269.207 309.7C269.207 309.033 269.374 308.467 269.707 308C269.907 307.6 270.607 307.167 271.807 306.7C273.007 306.167 274.24 305.667 275.507 305.2C276.84 304.667 277.74 304.267 278.207 304C279.407 303.4 280.707 302.267 282.107 300.6C283.574 298.867 285.074 296.933 286.607 294.8C288.14 292.6 289.64 290.467 291.107 288.4C292.574 286.333 293.974 284.6 295.307 283.2C294.107 282.933 292.74 282.633 291.207 282.3C289.674 281.967 288.24 281.8 286.907 281.8C284.974 281.8 283.307 282 281.907 282.4C280.507 282.733 279.207 283.6 278.007 285C276.874 286.4 275.64 288.6 274.307 291.6C273.507 291.6 273.107 291.3 273.107 290.7ZM317.584 310.4C315.118 310.4 312.884 309.6 310.884 308C308.951 306.4 307.984 303.967 307.984 300.7C307.984 297.7 308.718 294.5 310.184 291.1C311.651 287.633 313.518 284.6 315.784 282C317.718 279.733 319.884 277.867 322.284 276.4C324.684 274.933 326.951 274.2 329.084 274.2C330.551 274.2 331.818 274.6 332.884 275.4C334.018 276.267 334.584 277.5 334.584 279.1C334.584 280.767 333.951 282.6 332.684 284.6C331.418 286.6 329.618 288.467 327.284 290.2C326.284 290.933 325.018 291.633 323.484 292.3C321.951 292.967 320.418 293.533 318.884 294C317.351 294.4 316.084 294.6 315.084 294.6C314.751 295.4 314.418 296.467 314.084 297.8C313.818 299.133 313.684 300.5 313.684 301.9C313.684 303.567 314.018 305.067 314.684 306.4C315.351 307.733 316.584 308.4 318.384 308.4C320.718 308.4 323.118 307.6 325.584 306C328.051 304.4 330.384 302.433 332.584 300.1C334.851 297.7 336.718 295.333 338.184 293C338.984 291.267 339.818 289.567 340.684 287.9C341.551 286.167 342.418 284.467 343.284 282.8C344.618 280.4 345.751 278.733 346.684 277.8C347.618 276.8 348.851 276.3 350.384 276.3C350.918 276.3 351.484 276.4 352.084 276.6C352.684 276.733 353.284 276.8 353.884 276.8C354.284 276.8 354.584 276.767 354.784 276.7C353.851 277.233 352.618 278.567 351.084 280.7C349.618 282.767 348.118 285.167 346.584 287.9C345.051 290.633 343.684 293.2 342.484 295.6C343.751 294.067 345.084 292.533 346.484 291C347.884 289.467 349.418 288 351.084 286.6C352.684 285.2 354.584 283.767 356.784 282.3C359.051 280.767 361.251 279.5 363.384 278.5C365.518 277.5 367.218 277 368.484 277C368.951 277 369.284 277.033 369.484 277.1C369.484 277.1 369.118 277.767 368.384 279.1C367.651 280.367 366.718 282.067 365.584 284.2C364.518 286.267 363.418 288.5 362.284 290.9C361.151 293.233 360.118 295.5 359.184 297.7C358.318 299.833 357.751 301.633 357.484 303.1C357.284 303.967 357.184 304.767 357.184 305.5C357.184 306.567 357.384 307.267 357.784 307.6C358.184 307.933 358.618 308.1 359.084 308.1C360.351 308.1 361.651 307.533 362.984 306.4C364.318 305.267 365.584 303.8 366.784 302C368.051 300.2 369.218 298.3 370.284 296.3C371.351 294.3 372.251 292.433 372.984 290.7C373.784 290.7 374.184 291 374.184 291.6C373.451 293.4 372.518 295.4 371.384 297.6C370.318 299.733 369.084 301.8 367.684 303.8C366.351 305.733 364.851 307.333 363.184 308.6C361.518 309.867 359.718 310.5 357.784 310.5C356.451 310.5 355.051 310.033 353.584 309.1C352.184 308.167 351.484 306.433 351.484 303.9C351.484 303.167 351.551 302.4 351.684 301.6C351.818 300.733 352.051 299.8 352.384 298.8C352.918 297.467 353.551 296.033 354.284 294.5C355.018 292.967 356.218 290.867 357.884 288.2C358.351 287.467 358.618 286.9 358.684 286.5C358.818 286.1 358.884 285.767 358.884 285.5C358.884 284.7 358.518 284.3 357.784 284.3C357.184 284.3 356.284 284.633 355.084 285.3C353.951 285.967 352.518 287.133 350.784 288.8C349.118 290.4 347.118 292.667 344.784 295.6C342.518 298.533 339.884 302.867 336.884 308.6C336.418 309.467 335.884 309.933 335.284 310C334.751 310.067 333.984 310.133 332.984 310.2C332.318 310.267 331.684 310.333 331.084 310.4C330.484 310.467 329.984 310.633 329.584 310.9C330.384 309.3 331.151 307.7 331.884 306.1C332.684 304.5 333.451 302.933 334.184 301.4C331.918 303.867 329.351 306 326.484 307.8C323.618 309.533 320.651 310.4 317.584 310.4ZM315.784 292.8C316.718 292.8 318.284 292.467 320.484 291.8C322.684 291.067 324.684 289.933 326.484 288.4C328.218 286.867 329.551 285.2 330.484 283.4C331.418 281.533 331.884 279.967 331.884 278.7C331.884 277.233 331.351 276.5 330.284 276.5C329.484 276.5 328.384 277.033 326.984 278.1C325.584 279.167 323.851 280.967 321.784 283.5C320.518 285.1 319.318 286.833 318.184 288.7C317.051 290.567 316.251 291.933 315.784 292.8ZM378.782 310C376.315 310 374.582 309.3 373.582 307.9C372.582 306.433 372.082 304.767 372.082 302.9C372.082 301.9 372.182 300.9 372.382 299.9C372.649 298.833 372.949 297.867 373.282 297L379.982 279.9C380.182 279.367 380.282 278.9 380.282 278.5C380.282 277.833 380.115 277.267 379.782 276.8C379.449 276.267 379.215 275.9 379.082 275.7L384.582 275.5C385.582 275.433 386.282 275.567 386.682 275.9C387.149 276.167 387.382 276.5 387.382 276.9C387.382 277.3 387.149 278.033 386.682 279.1C386.015 280.7 385.115 282.7 383.982 285.1C382.849 287.5 381.715 289.967 380.582 292.5C379.515 295.033 378.582 297.4 377.782 299.6C377.049 301.8 376.682 303.5 376.682 304.7C376.682 305.567 376.882 306.3 377.282 306.9C377.749 307.5 378.515 307.8 379.582 307.8C380.982 307.8 382.349 307.267 383.682 306.2C385.082 305.067 386.382 303.633 387.582 301.9C388.782 300.167 389.882 298.3 390.882 296.3C391.949 294.3 392.849 292.433 393.582 290.7C394.382 290.7 394.782 291 394.782 291.6C394.115 293.267 393.249 295.167 392.182 297.3C391.115 299.433 389.882 301.467 388.482 303.4C387.149 305.267 385.649 306.833 383.982 308.1C382.382 309.367 380.649 310 378.782 310ZM387.682 269.3C386.815 269.3 386.049 268.967 385.382 268.3C384.782 267.633 384.482 266.833 384.482 265.9C384.482 264.767 384.949 263.767 385.882 262.9C386.815 261.967 387.849 261.5 388.982 261.5C389.915 261.5 390.715 261.8 391.382 262.4C392.049 263 392.382 263.767 392.382 264.7C392.382 265.9 391.915 266.967 390.982 267.9C390.049 268.833 388.949 269.3 387.682 269.3ZM485.45 244.1C485.45 246.633 484.95 249.767 483.95 253.5C483.017 257.167 481.75 261.2 480.15 265.6C478.617 269.933 476.983 274.367 475.25 278.9C473.517 283.433 471.85 287.833 470.25 292.1C468.717 296.3 467.45 300.133 466.45 303.6C465.517 307 465.05 309.733 465.05 311.8C465.05 314.933 466.083 316.5 468.15 316.5C470.15 316.5 472.583 315.567 475.45 313.7C478.317 311.9 481.35 309.467 484.55 306.4C487.817 303.267 491.017 299.733 494.15 295.8C497.283 291.8 500.117 287.667 502.65 283.4C505.25 279.133 507.317 274.933 508.85 270.8C510.383 266.6 511.15 262.767 511.15 259.3C511.15 256.967 510.817 254.867 510.15 253C509.55 251.133 508.25 250.2 506.25 250.2C505.383 250.2 504.683 250.033 504.15 249.7C503.683 249.3 503.45 248.933 503.45 248.6C503.45 247.933 504.017 247.6 505.15 247.6C505.95 247.6 506.95 247.9 508.15 248.5C509.417 249.033 510.65 249.9 511.85 251.1C513.117 252.233 514.183 253.7 515.05 255.5C515.917 257.3 516.35 259.433 516.35 261.9C516.35 264.967 515.517 268.533 513.85 272.6C512.25 276.6 510.05 280.767 507.25 285.1C504.517 289.367 501.383 293.567 497.85 297.7C494.383 301.767 490.75 305.467 486.95 308.8C483.15 312.067 479.417 314.667 475.75 316.6C472.15 318.6 468.817 319.6 465.75 319.6C463.15 319.6 461.417 318.8 460.55 317.2C459.683 315.6 459.25 313.5 459.25 310.9C459.25 306.833 459.917 302.4 461.25 297.6C462.65 292.8 464.35 287.833 466.35 282.7C468.417 277.5 470.45 272.333 472.45 267.2C474.517 262.067 476.217 257.133 477.55 252.4C478.95 247.667 479.65 243.3 479.65 239.3C479.65 234.767 478.35 231.7 475.75 230.1C473.217 228.5 469.883 227.7 465.75 227.7C461.683 227.7 457.35 228.467 452.75 230C448.217 231.533 443.75 233.7 439.35 236.5C435.017 239.3 431.083 242.667 427.55 246.6C424.017 250.467 421.183 254.8 419.05 259.6C416.983 264.333 415.95 269.433 415.95 274.9C415.95 278.1 416.483 281.1 417.55 283.9C418.683 286.633 420.483 288.867 422.95 290.6C425.417 292.267 428.65 293.1 432.65 293.1C435.65 293.1 438.517 292.467 441.25 291.2C444.05 289.933 446.517 288.233 448.65 286.1C450.783 283.9 452.483 281.467 453.75 278.8C455.017 276.133 455.65 273.4 455.65 270.6C455.65 268.333 455.183 266.367 454.25 264.7C453.317 262.967 451.75 262.1 449.55 262.1C448.683 262.1 447.783 262.233 446.85 262.5C445.917 262.767 445.283 262.9 444.95 262.9C444.617 262.9 444.45 262.7 444.45 262.3C444.45 262.167 444.517 262 444.65 261.8C444.783 261.6 445.017 261.4 445.35 261.2C446.083 260.8 446.983 260.5 448.05 260.3C449.117 260.033 450.05 259.9 450.85 259.9C453.783 259.9 456.05 260.933 457.65 263C459.25 265.067 460.05 267.567 460.05 270.5C460.05 273.7 459.217 276.8 457.55 279.8C455.883 282.8 453.65 285.5 450.85 287.9C448.117 290.3 445.017 292.2 441.55 293.6C438.15 295 434.65 295.7 431.05 295.7C426.583 295.7 422.783 294.6 419.65 292.4C416.583 290.2 414.25 287.333 412.65 283.8C411.117 280.2 410.35 276.367 410.35 272.3C410.35 267.033 411.383 262.033 413.45 257.3C415.583 252.5 418.483 248.167 422.15 244.3C425.817 240.367 429.983 236.967 434.65 234.1C439.317 231.233 444.217 229.033 449.35 227.5C454.55 225.9 459.717 225.1 464.85 225.1C468.717 225.1 472.183 225.733 475.25 227C478.383 228.267 480.85 230.3 482.65 233.1C484.517 235.833 485.45 239.5 485.45 244.1ZM538.518 310.3C536.985 310.3 535.618 309.867 534.418 309C533.285 308.133 532.718 306.367 532.718 303.7C532.718 302.567 532.785 301.5 532.918 300.5C533.118 299.5 533.351 298.433 533.618 297.3C533.018 298.3 532.185 299.533 531.118 301C530.051 302.467 528.851 303.9 527.518 305.3C526.251 306.7 524.918 307.867 523.518 308.8C522.185 309.733 520.918 310.2 519.718 310.2C517.985 310.2 516.585 309.433 515.518 307.9C514.451 306.3 513.918 304.233 513.918 301.7C513.918 298.967 514.551 296.033 515.818 292.9C517.085 289.767 518.818 286.767 521.018 283.9C523.218 281.033 525.751 278.7 528.618 276.9C531.485 275.1 534.485 274.2 537.618 274.2C539.151 274.2 540.618 274.467 542.018 275C543.418 275.467 544.651 276.267 545.718 277.4C546.185 277.867 546.418 278.4 546.418 279C546.418 279.4 546.251 279.733 545.918 280C545.585 280.267 545.151 280.333 544.618 280.2C543.885 277.867 542.318 276.7 539.918 276.7C538.785 276.7 537.485 277.067 536.018 277.8C534.218 278.733 532.285 280.233 530.218 282.3C528.218 284.3 526.318 286.6 524.518 289.2C522.785 291.733 521.351 294.3 520.218 296.9C519.085 299.5 518.518 301.867 518.518 304C518.518 306.2 519.351 307.3 521.018 307.3C522.485 307.3 523.985 306.6 525.518 305.2C527.118 303.8 528.618 302.067 530.018 300C531.485 297.867 532.818 295.767 534.018 293.7C535.218 291.633 536.151 289.967 536.818 288.7C537.818 286.9 538.751 285.4 539.618 284.2C540.485 283 541.718 282.4 543.318 282.4C544.051 282.4 544.785 282.5 545.518 282.7C546.251 282.9 547.018 282.933 547.818 282.8C545.818 284.8 544.051 287.167 542.518 289.9C541.051 292.633 539.918 295.333 539.118 298C538.318 300.6 537.918 302.8 537.918 304.6C537.918 306.6 538.585 307.6 539.918 307.6C540.985 307.6 542.118 307 543.318 305.8C544.585 304.6 545.785 303.1 546.918 301.3C548.118 299.433 549.218 297.567 550.218 295.7C551.218 293.767 552.018 292.1 552.618 290.7C552.951 290.7 553.218 290.733 553.418 290.8C553.685 290.867 553.818 291.133 553.818 291.6C553.751 291.867 553.618 292.167 553.418 292.5C553.285 292.767 553.051 293.267 552.718 294C552.185 295.067 551.451 296.5 550.518 298.3C549.585 300.1 548.485 301.933 547.218 303.8C545.951 305.6 544.585 307.133 543.118 308.4C541.651 309.667 540.118 310.3 538.518 310.3ZM560.358 310.3C557.891 310.3 556.058 309.567 554.858 308.1C553.724 306.567 553.158 304.767 553.158 302.7C553.158 300.567 553.458 298.367 554.058 296.1C554.658 293.833 555.191 291.933 555.658 290.4C556.724 286.667 558.058 282.7 559.658 278.5C561.324 274.233 563.124 270.067 565.058 266C567.058 261.867 569.024 258.167 570.958 254.9C572.491 252.3 574.124 250.367 575.858 249.1C577.658 247.767 579.224 247.1 580.558 247.1C581.624 247.1 582.458 247.5 583.058 248.3C583.724 249.033 584.058 250.167 584.058 251.7C584.058 252.767 583.858 254.033 583.458 255.5C583.124 256.967 582.524 258.633 581.658 260.5C579.324 265.7 576.524 270.9 573.258 276.1C570.058 281.3 565.991 286.167 561.058 290.7C560.258 292.567 559.591 294.567 559.058 296.7C558.524 298.833 558.258 300.567 558.258 301.9C558.258 306.033 559.658 308.1 562.458 308.1C564.591 308.1 566.958 306.567 569.558 303.5C572.158 300.367 574.624 296.1 576.958 290.7C577.224 290.7 577.491 290.767 577.758 290.9C578.024 290.967 578.158 291.2 578.158 291.6C577.424 293.4 576.491 295.4 575.358 297.6C574.291 299.733 573.024 301.767 571.558 303.7C570.158 305.633 568.524 307.233 566.658 308.5C564.791 309.7 562.691 310.3 560.358 310.3ZM561.858 287.5C564.258 285.033 566.591 282.2 568.858 279C571.124 275.733 573.224 272.367 575.158 268.9C577.158 265.367 578.824 262.033 580.158 258.9C580.624 257.9 580.991 256.8 581.258 255.6C581.591 254.4 581.758 253.4 581.758 252.6C581.758 251.667 581.524 251.2 581.058 251.2C580.791 251.2 580.391 251.467 579.858 252C579.324 252.467 578.624 253.3 577.758 254.5C576.491 256.167 575.091 258.433 573.558 261.3C572.091 264.167 570.591 267.233 569.058 270.5C567.524 273.767 566.124 276.933 564.858 280C563.591 283 562.591 285.5 561.858 287.5ZM587.147 310.4C584.68 310.4 582.447 309.6 580.447 308C578.514 306.4 577.547 303.967 577.547 300.7C577.547 297.7 578.28 294.5 579.747 291.1C581.214 287.633 583.08 284.6 585.347 282C587.28 279.733 589.447 277.867 591.847 276.4C594.247 274.933 596.514 274.2 598.647 274.2C600.114 274.2 601.38 274.6 602.447 275.4C603.58 276.267 604.147 277.5 604.147 279.1C604.147 280.767 603.514 282.6 602.247 284.6C600.98 286.6 599.18 288.467 596.847 290.2C595.847 290.933 594.58 291.633 593.047 292.3C591.514 292.967 589.98 293.533 588.447 294C586.914 294.4 585.647 294.6 584.647 294.6C584.314 295.4 583.98 296.467 583.647 297.8C583.38 299.133 583.247 300.5 583.247 301.9C583.247 303.567 583.58 305.067 584.247 306.4C584.914 307.733 586.147 308.4 587.947 308.4C590.28 308.4 592.68 307.6 595.147 306C597.614 304.4 599.947 302.433 602.147 300.1C604.414 297.7 606.28 295.333 607.747 293C608.547 291.267 609.38 289.567 610.247 287.9C611.114 286.167 611.98 284.467 612.847 282.8C614.18 280.4 615.314 278.733 616.247 277.8C617.18 276.8 618.414 276.3 619.947 276.3C620.48 276.3 621.047 276.4 621.647 276.6C622.247 276.733 622.847 276.8 623.447 276.8C623.847 276.8 624.147 276.767 624.347 276.7C623.414 277.233 622.18 278.567 620.647 280.7C619.18 282.767 617.68 285.167 616.147 287.9C614.614 290.633 613.247 293.2 612.047 295.6C613.314 294.067 614.647 292.533 616.047 291C617.447 289.467 618.98 288 620.647 286.6C622.247 285.2 624.147 283.767 626.347 282.3C628.614 280.767 630.814 279.5 632.947 278.5C635.08 277.5 636.78 277 638.047 277C638.514 277 638.847 277.033 639.047 277.1C639.047 277.1 638.68 277.767 637.947 279.1C637.214 280.367 636.28 282.067 635.147 284.2C634.08 286.267 632.98 288.5 631.847 290.9C630.714 293.233 629.68 295.5 628.747 297.7C627.88 299.833 627.314 301.633 627.047 303.1C626.847 303.967 626.747 304.767 626.747 305.5C626.747 306.567 626.947 307.267 627.347 307.6C627.747 307.933 628.18 308.1 628.647 308.1C629.914 308.1 631.214 307.533 632.547 306.4C633.88 305.267 635.147 303.8 636.347 302C637.614 300.2 638.78 298.3 639.847 296.3C640.914 294.3 641.814 292.433 642.547 290.7C643.347 290.7 643.747 291 643.747 291.6C643.014 293.4 642.08 295.4 640.947 297.6C639.88 299.733 638.647 301.8 637.247 303.8C635.914 305.733 634.414 307.333 632.747 308.6C631.08 309.867 629.28 310.5 627.347 310.5C626.014 310.5 624.614 310.033 623.147 309.1C621.747 308.167 621.047 306.433 621.047 303.9C621.047 303.167 621.114 302.4 621.247 301.6C621.38 300.733 621.614 299.8 621.947 298.8C622.48 297.467 623.114 296.033 623.847 294.5C624.58 292.967 625.78 290.867 627.447 288.2C627.914 287.467 628.18 286.9 628.247 286.5C628.38 286.1 628.447 285.767 628.447 285.5C628.447 284.7 628.08 284.3 627.347 284.3C626.747 284.3 625.847 284.633 624.647 285.3C623.514 285.967 622.08 287.133 620.347 288.8C618.68 290.4 616.68 292.667 614.347 295.6C612.08 298.533 609.447 302.867 606.447 308.6C605.98 309.467 605.447 309.933 604.847 310C604.314 310.067 603.547 310.133 602.547 310.2C601.88 310.267 601.247 310.333 600.647 310.4C600.047 310.467 599.547 310.633 599.147 310.9C599.947 309.3 600.714 307.7 601.447 306.1C602.247 304.5 603.014 302.933 603.747 301.4C601.48 303.867 598.914 306 596.047 307.8C593.18 309.533 590.214 310.4 587.147 310.4ZM585.347 292.8C586.28 292.8 587.847 292.467 590.047 291.8C592.247 291.067 594.247 289.933 596.047 288.4C597.78 286.867 599.114 285.2 600.047 283.4C600.98 281.533 601.447 279.967 601.447 278.7C601.447 277.233 600.914 276.5 599.847 276.5C599.047 276.5 597.947 277.033 596.547 278.1C595.147 279.167 593.414 280.967 591.347 283.5C590.08 285.1 588.88 286.833 587.747 288.7C586.614 290.567 585.814 291.933 585.347 292.8ZM666.245 257.2C665.378 258.467 664.411 260.067 663.345 262C662.278 263.933 661.278 265.8 660.345 267.6C659.478 269.4 658.811 270.767 658.345 271.7H667.545C667.545 271.967 667.411 272.4 667.145 273C666.945 273.6 666.511 274.033 665.845 274.3H657.145C656.345 276.1 655.411 278.267 654.345 280.8C653.345 283.333 652.345 285.967 651.345 288.7C650.411 291.433 649.611 294 648.945 296.4C648.345 298.733 648.045 300.633 648.045 302.1C648.045 304.1 648.311 305.6 648.845 306.6C649.378 307.533 650.345 308 651.745 308C653.545 308 655.278 307.133 656.945 305.4C658.611 303.6 660.178 301.367 661.645 298.7C663.178 296.033 664.511 293.367 665.645 290.7C666.445 290.7 666.845 291 666.845 291.6C666.111 293.4 665.211 295.367 664.145 297.5C663.078 299.633 661.845 301.7 660.445 303.7C659.111 305.633 657.578 307.233 655.845 308.5C654.178 309.7 652.311 310.3 650.245 310.3C647.445 310.3 645.545 309.533 644.545 308C643.545 306.4 643.045 304.367 643.045 301.9C643.045 300.1 643.378 297.933 644.045 295.4C644.711 292.8 645.511 290.133 646.445 287.4C647.445 284.667 648.411 282.133 649.345 279.8C650.278 277.4 651.011 275.567 651.545 274.3H645.145C645.145 273.767 645.378 273.2 645.845 272.6C646.311 272 646.811 271.7 647.345 271.7H652.645C653.178 270.633 653.778 269.3 654.445 267.7C655.178 266.1 656.145 264.333 657.345 262.4C658.345 260.8 659.611 259.533 661.145 258.6C662.745 257.667 664.445 257.2 666.245 257.2ZM671.462 310C668.995 310 667.262 309.3 666.262 307.9C665.262 306.433 664.762 304.767 664.762 302.9C664.762 301.9 664.862 300.9 665.062 299.9C665.328 298.833 665.628 297.867 665.962 297L672.662 279.9C672.862 279.367 672.962 278.9 672.962 278.5C672.962 277.833 672.795 277.267 672.462 276.8C672.128 276.267 671.895 275.9 671.762 275.7L677.262 275.5C678.262 275.433 678.962 275.567 679.362 275.9C679.828 276.167 680.062 276.5 680.062 276.9C680.062 277.3 679.828 278.033 679.362 279.1C678.695 280.7 677.795 282.7 676.662 285.1C675.528 287.5 674.395 289.967 673.262 292.5C672.195 295.033 671.262 297.4 670.462 299.6C669.728 301.8 669.362 303.5 669.362 304.7C669.362 305.567 669.562 306.3 669.962 306.9C670.428 307.5 671.195 307.8 672.262 307.8C673.662 307.8 675.028 307.267 676.362 306.2C677.762 305.067 679.062 303.633 680.262 301.9C681.462 300.167 682.562 298.3 683.562 296.3C684.628 294.3 685.528 292.433 686.262 290.7C687.062 290.7 687.462 291 687.462 291.6C686.795 293.267 685.928 295.167 684.862 297.3C683.795 299.433 682.562 301.467 681.162 303.4C679.828 305.267 678.328 306.833 676.662 308.1C675.062 309.367 673.328 310 671.462 310ZM680.362 269.3C679.495 269.3 678.728 268.967 678.062 268.3C677.462 267.633 677.162 266.833 677.162 265.9C677.162 264.767 677.628 263.767 678.562 262.9C679.495 261.967 680.528 261.5 681.662 261.5C682.595 261.5 683.395 261.8 684.062 262.4C684.728 263 685.062 263.767 685.062 264.7C685.062 265.9 684.595 266.967 683.662 267.9C682.728 268.833 681.628 269.3 680.362 269.3ZM679.64 310.8C682.04 305.933 684.34 301.133 686.54 296.4C688.74 291.6 691.007 287.033 693.34 282.7C694.673 280.3 695.807 278.633 696.74 277.7C697.673 276.7 698.907 276.2 700.44 276.2C700.973 276.2 701.54 276.3 702.14 276.5C702.74 276.633 703.34 276.7 703.94 276.7C704.34 276.7 704.64 276.667 704.84 276.6C703.907 277.133 702.673 278.467 701.14 280.6C699.673 282.667 698.173 285.067 696.64 287.8C695.107 290.533 693.74 293.1 692.54 295.5C693.807 293.967 695.14 292.433 696.54 290.9C697.94 289.367 699.473 287.9 701.14 286.5C702.74 285.1 704.64 283.667 706.84 282.2C709.107 280.667 711.307 279.4 713.44 278.4C715.573 277.4 717.273 276.9 718.54 276.9C719.007 276.9 719.34 276.933 719.54 277C719.54 277 719.173 277.667 718.44 279C717.707 280.267 716.773 281.967 715.64 284.1C714.573 286.167 713.473 288.4 712.34 290.8C711.207 293.133 710.173 295.4 709.24 297.6C708.373 299.733 707.807 301.533 707.54 303C707.34 303.867 707.24 304.667 707.24 305.4C707.24 306.467 707.44 307.167 707.84 307.5C708.24 307.833 708.673 308 709.14 308C710.407 308 711.707 307.433 713.04 306.3C714.373 305.167 715.64 303.733 716.84 302C718.107 300.2 719.273 298.3 720.34 296.3C721.407 294.3 722.307 292.433 723.04 290.7C723.84 290.7 724.24 291 724.24 291.6C723.507 293.4 722.573 295.4 721.44 297.6C720.373 299.733 719.14 301.767 717.74 303.7C716.407 305.633 714.907 307.233 713.24 308.5C711.573 309.767 709.773 310.4 707.84 310.4C706.507 310.4 705.107 309.933 703.64 309C702.24 308.067 701.54 306.333 701.54 303.8C701.54 303.067 701.607 302.3 701.74 301.5C701.873 300.633 702.107 299.7 702.44 298.7C702.973 297.367 703.607 295.933 704.34 294.4C705.073 292.867 706.273 290.767 707.94 288.1C708.407 287.367 708.673 286.8 708.74 286.4C708.873 286 708.94 285.667 708.94 285.4C708.94 284.6 708.573 284.2 707.84 284.2C707.24 284.2 706.34 284.533 705.14 285.2C704.007 285.867 702.573 287.033 700.84 288.7C699.173 290.3 697.173 292.567 694.84 295.5C692.573 298.433 689.94 302.767 686.94 308.5C686.473 309.367 685.94 309.833 685.34 309.9C684.807 309.967 684.04 310.033 683.04 310.1C682.373 310.167 681.74 310.2 681.14 310.2C680.54 310.267 680.04 310.467 679.64 310.8ZM747.729 310.3C746.196 310.3 744.829 309.867 743.629 309C742.496 308.133 741.929 306.367 741.929 303.7C741.929 302.567 741.996 301.5 742.129 300.5C742.329 299.5 742.562 298.433 742.829 297.3C742.229 298.3 741.396 299.533 740.329 301C739.262 302.467 738.062 303.9 736.729 305.3C735.462 306.7 734.129 307.867 732.729 308.8C731.396 309.733 730.129 310.2 728.929 310.2C727.196 310.2 725.796 309.433 724.729 307.9C723.662 306.3 723.129 304.233 723.129 301.7C723.129 298.967 723.762 296.033 725.029 292.9C726.296 289.767 728.029 286.767 730.229 283.9C732.429 281.033 734.962 278.7 737.829 276.9C740.696 275.1 743.696 274.2 746.829 274.2C748.362 274.2 749.829 274.467 751.229 275C752.629 275.467 753.862 276.267 754.929 277.4C755.396 277.867 755.629 278.4 755.629 279C755.629 279.4 755.462 279.733 755.129 280C754.796 280.267 754.362 280.333 753.829 280.2C753.096 277.867 751.529 276.7 749.129 276.7C747.996 276.7 746.696 277.067 745.229 277.8C743.429 278.733 741.496 280.233 739.429 282.3C737.429 284.3 735.529 286.6 733.729 289.2C731.996 291.733 730.562 294.3 729.429 296.9C728.296 299.5 727.729 301.867 727.729 304C727.729 306.2 728.562 307.3 730.229 307.3C731.696 307.3 733.196 306.6 734.729 305.2C736.329 303.8 737.829 302.067 739.229 300C740.696 297.867 742.029 295.767 743.229 293.7C744.429 291.633 745.362 289.967 746.029 288.7C747.029 286.9 747.962 285.4 748.829 284.2C749.696 283 750.929 282.4 752.529 282.4C753.262 282.4 753.996 282.5 754.729 282.7C755.462 282.9 756.229 282.933 757.029 282.8C755.029 284.8 753.262 287.167 751.729 289.9C750.262 292.633 749.129 295.333 748.329 298C747.529 300.6 747.129 302.8 747.129 304.6C747.129 306.6 747.796 307.6 749.129 307.6C750.196 307.6 751.329 307 752.529 305.8C753.796 304.6 754.996 303.1 756.129 301.3C757.329 299.433 758.429 297.567 759.429 295.7C760.429 293.767 761.229 292.1 761.829 290.7C762.162 290.7 762.429 290.733 762.629 290.8C762.896 290.867 763.029 291.133 763.029 291.6C762.962 291.867 762.829 292.167 762.629 292.5C762.496 292.767 762.262 293.267 761.929 294C761.396 295.067 760.662 296.5 759.729 298.3C758.796 300.1 757.696 301.933 756.429 303.8C755.162 305.6 753.796 307.133 752.329 308.4C750.862 309.667 749.329 310.3 747.729 310.3Z" fill="black"/>
<defs>
<linearGradient id="paint0_linear_73_2" x1="425" y1="0" x2="425" y2="550" gradientUnits="userSpaceOnUse">
<stop stop-color="white"/>
<stop offset="1" stop-color="#F9F8F8"/>
</linearGradient>
</defs>
</svg>
